<svg width="34" height="34" viewBox="0 0 34 34" fill="none" xmlns="http://www.w3.org/2000/svg">
<g clip-path="url(#clip0_1366_4707)">
<path d="M32.125 26.625C32.125 27.3543 31.8353 28.0538 31.3195 28.5695C30.8038 29.0853 30.1043 29.375 29.375 29.375H4.625C3.89565 29.375 3.19618 29.0853 2.68046 28.5695C2.16473 28.0538 1.875 27.3543 1.875 26.625V11.5C1.875 10.7707 2.16473 10.0712 2.68046 9.55546C3.19618 9.03973 3.89565 8.75 4.625 8.75H10.125L12.875 4.625H21.125L23.875 8.75H29.375C30.1043 8.75 30.8038 9.03973 31.3195 9.55546C31.8353 10.0712 32.125 10.7707 32.125 11.5V26.625Z" stroke="white" stroke-width="2" stroke-linecap="round" stroke-linejoin="round"/>
<path d="M17 23.875C20.0376 23.875 22.5 21.4126 22.5 18.375C22.5 15.3374 20.0376 12.875 17 12.875C13.9624 12.875 11.5 15.3374 11.5 18.375C11.5 21.4126 13.9624 23.875 17 23.875Z" stroke="white" stroke-width="2" stroke-linecap="round" stroke-linejoin="round"/>
</g>
<defs>
<clipPath id="clip0_1366_4707">
<rect width="33" height="33" fill="white" transform="translate(0.5 0.5)"/>
</clipPath>
</defs>
</svg>
